<svg width="45" height="45" viewBox="0 0 45 45" fill="none" xmlns="http://www.w3.org/2000/svg">
<path d="M38.1193 7.92714C35.2063 6.56425 32.0917 5.57376 28.8354 5.00977C28.4355 5.73279 27.9683 6.70526 27.6462 7.47887C24.1847 6.9583 20.755 6.9583 17.3572 7.47887C17.0351 6.70526 16.5573 5.73279 16.1538 5.00977C12.894 5.57376 9.77579 6.56789 6.86286 7.93435C0.987455 16.8129 -0.605271 25.4708 0.191094 34.0059C4.08797 36.916 7.86452 38.6838 11.5773 39.8406C12.494 38.5789 13.3116 37.2377 14.016 35.8243C12.6745 35.3146 11.3897 34.6855 10.1758 33.9553C10.4978 33.7167 10.8129 33.4672 11.1172 33.2106C18.5216 36.6738 26.5667 36.6738 33.8826 33.2106C34.1906 33.4672 34.5055 33.7167 34.8241 33.9553C33.6065 34.6891 32.3182 35.3181 30.9768 35.8279C31.6811 37.2377 32.4952 38.5825 33.4154 39.8441C37.1318 38.6874 40.9119 36.9196 44.8087 34.0059C45.7432 24.1116 43.2125 15.5331 38.1193 7.92714ZM15.0247 28.7569C12.802 28.7569 10.9792 26.6819 10.9792 24.155C10.9792 21.6281 12.7631 19.5494 15.0247 19.5494C17.2864 19.5494 19.1092 21.6244 19.0702 24.155C19.0738 26.6819 17.2864 28.7569 15.0247 28.7569ZM29.9751 28.7569C27.7524 28.7569 25.9296 26.6819 25.9296 24.155C25.9296 21.6281 27.7134 19.5494 29.9751 19.5494C32.2368 19.5494 34.0596 21.6244 34.0207 24.155C34.0207 26.6819 32.2368 28.7569 29.9751 28.7569Z" fill="#323234"/>
</svg>
